<?xml version="1.0" encoding="UTF-8" standalone="no"?>
<svg
   xmlns:dc="http://purl.org/dc/elements/1.1/"
   xmlns:cc="http://creativecommons.org/ns#"
   xmlns:rdf="http://www.w3.org/1999/02/22-rdf-syntax-ns#"
   xmlns:svg="http://www.w3.org/2000/svg"
   xmlns="http://www.w3.org/2000/svg"
   xmlns:xlink="http://www.w3.org/1999/xlink"
   xmlns:sodipodi="http://sodipodi.sourceforge.net/DTD/sodipodi-0.dtd"
   xmlns:inkscape="http://www.inkscape.org/namespaces/inkscape"
   version="1.1"
   id="Capa_1"
   x="0px"
   y="0px"
   viewBox="0 0 473 473"
   style="enable-background:new 0 0 473 473;"
   xml:space="preserve"
   width="512px"
   height="512px"
   class=""
   sodipodi:docname="logo.svg"
   inkscape:version="0.92.3 (2405546, 2018-03-11)"><metadata
   id="metadata3753"><rdf:RDF><cc:Work
       rdf:about=""><dc:format>image/svg+xml</dc:format><dc:type
         rdf:resource="http://purl.org/dc/dcmitype/StillImage" /></cc:Work></rdf:RDF></metadata><defs
   id="defs3751"><linearGradient
     inkscape:collect="always"
     id="linearGradient6179"><stop
       style="stop-color:#a7a6be;stop-opacity:1;"
       offset="0"
       id="stop6175" /><stop
       style="stop-color:#a7a6be;stop-opacity:1"
       offset="1"
       id="stop6177" /></linearGradient><linearGradient
     inkscape:collect="always"
     id="linearGradient6171"><stop
       style="stop-color:#a7a6be;stop-opacity:1;"
       offset="0"
       id="stop6167" /><stop
       style="stop-color:#a7a6be;stop-opacity:1"
       offset="1"
       id="stop6169" /></linearGradient><linearGradient
     inkscape:collect="always"
     id="linearGradient6163"><stop
       style="stop-color:#a7a6be;stop-opacity:1;"
       offset="0"
       id="stop6159" /><stop
       style="stop-color:#a7a6be;stop-opacity:1"
       offset="1"
       id="stop6161" /></linearGradient><linearGradient
     inkscape:collect="always"
     id="linearGradient6127"><stop
       style="stop-color:#a7a6be;stop-opacity:1;"
       offset="0"
       id="stop6123" /><stop
       id="stop6131"
       offset="1"
       style="stop-color:#a7a6be;stop-opacity:1" /><stop
       style="stop-color:#a7a6be;stop-opacity:1"
       offset="1"
       id="stop6125" /></linearGradient><linearGradient
     inkscape:collect="always"
     xlink:href="#linearGradient6127"
     id="linearGradient6129"
     x1="1.1343132"
     y1="2.231132"
     x2="473.53876"
     y2="471.32666"
     gradientUnits="userSpaceOnUse" /><linearGradient
     inkscape:collect="always"
     xlink:href="#linearGradient6163"
     id="linearGradient6165"
     x1="138.64328"
     y1="224.78656"
     x2="152.87865"
     y2="241.52005"
     gradientUnits="userSpaceOnUse" /><linearGradient
     inkscape:collect="always"
     xlink:href="#linearGradient6171"
     id="linearGradient6173"
     x1="223.67099"
     y1="224.78656"
     x2="240.40448"
     y2="242.07782"
     gradientUnits="userSpaceOnUse" /><linearGradient
     inkscape:collect="always"
     xlink:href="#linearGradient6179"
     id="linearGradient6181"
     x1="311.5166"
     y1="223.67099"
     x2="327.42532"
     y2="240.96227"
     gradientUnits="userSpaceOnUse" /></defs><sodipodi:namedview
   pagecolor="#ffffff"
   bordercolor="#666666"
   borderopacity="1"
   objecttolerance="10"
   gridtolerance="10"
   guidetolerance="10"
   inkscape:pageopacity="0"
   inkscape:pageshadow="2"
   inkscape:window-width="1920"
   inkscape:window-height="1017"
   id="namedview3749"
   showgrid="false"
   inkscape:zoom="1.65625"
   inkscape:cx="157.88679"
   inkscape:cy="256"
   inkscape:window-x="-8"
   inkscape:window-y="-8"
   inkscape:window-maximized="1"
   inkscape:current-layer="g3742" /><g
   id="g3746"><g
     id="g3744">
	<g
   id="g3742">
		<path
   d="M403.581,69.3c-44.7-44.7-104-69.3-167.2-69.3s-122.5,24.6-167.2,69.3c-86.4,86.4-92.4,224.7-14.9,318    c-7.6,15.3-19.8,33.1-37.9,42c-8.7,4.3-13.6,13.6-12.1,23.2s8.9,17.1,18.5,18.6c4.5,0.7,10.9,1.4,18.7,1.4    c20.9,0,51.7-4.9,83.2-27.6c35.1,18.9,73.5,28.1,111.6,28.1c61.2,0,121.8-23.7,167.4-69.3c44.7-44.7,69.3-104,69.3-167.2    S448.281,114,403.581,69.3z M384.481,384.6c-67.5,67.5-172,80.9-254.2,32.6c-5.4-3.2-12.1-2.2-16.4,2.1c-0.4,0.2-0.8,0.5-1.1,0.8    c-27.1,21-53.7,25.4-71.3,25.4h-0.1c20.3-14.8,33.1-36.8,40.6-53.9c1.2-2.9,1.4-5.9,0.7-8.7c-0.3-2.7-1.4-5.4-3.3-7.6    c-73.2-82.7-69.4-208.7,8.8-286.9c81.7-81.7,214.6-81.7,296.2,0C466.181,170.1,466.181,302.9,384.481,384.6z"
   data-original="#000000"
   class="active-path"
   data-old_color="#a7a6be"
   fill="#a7a6be"
   id="path3734"
   style="fill:url(#linearGradient6129)" />
		<circle
   cx="236.381"
   cy="236.5"
   r="16.6"
   data-original="#000000"
   class="active-path"
   data-old_color="#a7a6be"
   fill="#a7a6be"
   id="circle3736"
   style="fill-opacity:1;fill:url(#linearGradient6173)" />
		<circle
   cx="321.981"
   cy="236.5"
   r="16.6"
   data-original="#000000"
   class="active-path"
   data-old_color="#a7a6be"
   fill="#a7a6be"
   id="circle3738"
   style="fill:url(#linearGradient6181)" />
		<circle
   cx="150.781"
   cy="236.5"
   r="16.6"
   data-original="#000000"
   class="active-path"
   data-old_color="#a7a6be"
   fill="#a7a6be"
   id="circle3740"
   style="fill:url(#linearGradient6165)" />
	</g>
</g></g> </svg>